<svg xmlns="http://www.w3.org/2000/svg" width="50" height="50" viewBox="0 0 512 512" version="1.1">
	<path d="M 228.258 21.513 C 167.783 29.182, 110.523 60.796, 73.807 106.788 C 59.366 124.878, 43.193 153.827, 35.420 175.500 C 30.893 188.122, 25.718 208.257, 23.340 222.500 C 20.452 239.789, 20.705 278.926, 23.818 296.829 C 30.879 337.421, 45.798 371.533, 70.018 402.463 C 78.663 413.503, 98.957 433.893, 111 443.640 C 142.410 469.061, 178.609 485.184, 218.500 491.521 C 232.277 493.709, 266.743 494.583, 280 493.080 C 327.500 487.694, 369.697 469.241, 408.228 437.005 C 450.907 401.299, 478.757 352.316, 488.683 295.500 C 491.387 280.025, 491.108 242.869, 488.158 225.500 C 482.328 191.178, 471.544 161.578, 454.181 132.237 C 445.006 116.732, 435.011 103.937, 421.538 90.448 C 384.095 52.959, 340.497 30.083, 292 22.480 C 277.365 20.186, 242.851 19.662, 228.258 21.513 M 262.500 32.990 C 264.700 33.487, 275.950 35.538, 287.500 37.549 C 299.050 39.560, 311.087 41.794, 314.250 42.514 C 317.413 43.234, 320 43.612, 320 43.355 C 320 42.414, 310.249 38.613, 300.504 35.755 C 291.683 33.169, 288.608 32.778, 274.500 32.455 C 263.470 32.201, 259.743 32.368, 262.500 32.990 M 236 47.689 C 221.531 49.212, 200.655 54.280, 186.791 59.634 C 138.230 78.388, 99.907 110.107, 75.192 152 C 64.009 170.955, 54.961 195.732, 50.361 220 C 47.206 236.647, 46.055 266.612, 47.940 283.026 C 52.707 324.534, 67.797 359.278, 94.836 391 C 102.238 399.684, 124.475 421.533, 132.807 428.310 C 146.442 439.398, 164.638 449.905, 182.500 457.003 C 193.562 461.399, 214.692 466.669, 228.526 468.482 C 281.193 475.387, 338.892 458.523, 383.500 423.189 C 401.628 408.829, 417.939 391.909, 430.759 374.164 C 444.366 355.331, 456.918 325.556, 462.657 298.500 C 465.215 286.439, 465.416 283.803, 465.433 262 C 465.452 236.612, 464.696 230.277, 459.039 208.435 C 453.687 187.768, 442.326 162.166, 430.220 143.485 C 422.487 131.553, 407.899 114.782, 396.069 104.222 C 361.430 73.305, 320.862 54.124, 278.199 48.492 C 268.063 47.154, 245.210 46.719, 236 47.689 M 225.440 58.004 C 183.473 64.360, 143.215 86.199, 110 120.629 C 104.225 126.615, 97.150 134.658, 94.278 138.502 C 81.049 156.208, 68.802 181.123, 62.382 203.390 C 48.168 252.696, 52.417 299.194, 75.460 346.500 C 86.257 368.667, 96.169 382.164, 115.139 400.533 C 161.643 445.564, 221.256 465.340, 283.462 456.371 C 303.610 453.466, 321.432 447.771, 342.500 437.507 C 388.574 415.061, 423.626 379.217, 441.965 335.794 C 451.943 312.167, 455.782 295.244, 456.673 270.944 C 457.807 240.054, 453.251 214.239, 441.511 185.027 C 430.397 157.373, 417.350 137.221, 398.067 117.921 C 383.174 103.016, 374.031 95.702, 357.449 85.432 C 324.310 64.906, 292.526 55.940, 253.500 56.108 C 243.421 56.152, 233.037 56.853, 225.440 58.004 M 231.500 69.583 C 182.636 77.128, 130.162 110.396, 102.703 151.241 C 92.761 166.029, 82.006 189.540, 76.509 208.500 C 71.670 225.192, 69.761 238.945, 69.641 258 C 69.470 285.002, 73.636 305.506, 84.378 330.531 C 99.240 365.152, 121.563 391.905, 153.281 413.106 C 187.971 436.295, 221.521 446.140, 260.956 444.705 C 282.682 443.914, 299.464 440.576, 319.385 433.085 C 381.703 409.650, 426.780 357.148, 438.847 293.945 C 448.266 244.609, 433.241 184.354, 400.940 141.921 C 377.461 111.078, 334.526 83.070, 295.462 73.114 C 275.567 68.044, 250.450 66.657, 231.500 69.583 M 235.084 91.203 C 223.537 92.486, 206.240 96.995, 193.847 101.953 C 150.152 119.434, 115.740 154.584, 99.581 198.238 C 90.559 222.612, 86.734 248.612, 88.827 271.339 C 90.997 294.896, 95.511 311.083, 105.604 331.500 C 114.010 348.503, 122.956 360.974, 136.487 374.551 C 181.749 419.970, 237.064 435.583, 297.501 420 C 315.958 415.241, 334.892 406.816, 350.155 396.571 C 359.409 390.360, 374.379 377.342, 380.712 370 C 398.720 349.123, 410.843 324.878, 417.717 296 C 419.785 287.308, 420.301 282.142, 420.713 266 C 421.145 249.021, 420.926 244.819, 419.014 233.500 C 412.324 193.897, 392.062 155.864, 365.092 132.285 C 328.699 100.468, 282.652 85.918, 235.084 91.203 M 237.105 108.184 C 219.477 110.391, 196.031 118.222, 181.312 126.818 C 161.208 138.559, 141.745 157.602, 130.942 176.100 C 121.923 191.542, 114.134 212.869, 110.344 232.500 C 107.949 244.903, 107.954 271.199, 110.353 283.346 C 116.223 313.064, 130.301 339.503, 151.435 360.500 C 165.104 374.079, 177.586 383.060, 194.500 391.482 C 226.974 407.653, 255.401 410.798, 289.500 401.991 C 333.413 390.649, 368.404 362.463, 387.038 323.420 C 392.584 311.801, 398.582 293.444, 400.572 282 C 403.019 267.923, 402.082 240.371, 398.666 226 C 393.312 203.475, 382.992 180.237, 371.545 164.934 C 358.810 147.909, 337.101 129.899, 322.775 124.472 C 319.324 123.165, 310.875 120.463, 304 118.468 C 297.125 116.474, 286.933 113.499, 281.351 111.859 C 264.831 107.004, 253.827 106.090, 237.105 108.184 M 239.500 120.018 C 220.778 122.422, 200.945 129.994, 183.741 141.304 C 148.461 164.497, 126.312 202.815, 121.903 248.286 C 118.800 280.286, 128.091 316.762, 146.281 343.992 C 160.263 364.923, 188.459 385.743, 212.500 392.890 C 236.010 399.879, 267.497 399.761, 292.121 392.593 C 327.125 382.403, 353.102 363.221, 369.182 335.688 C 382.312 313.207, 390.096 280.541, 388.528 254.500 C 386.226 216.253, 369.389 178.566, 343.882 154.571 C 339.376 150.332, 333.171 145.154, 330.094 143.066 C 316.719 133.986, 294.937 125.058, 277.500 121.507 C 267.787 119.529, 249.032 118.794, 239.500 120.018 M 239.831 145.955 C 208.439 151.709, 180.338 172.448, 166.441 200.117 C 150.313 232.231, 151.821 270.583, 170.384 300.366 C 185.096 323.971, 211.315 341.888, 238.732 347.074 C 248.197 348.865, 271.636 347.745, 281 345.056 C 298.126 340.136, 317.451 328.156, 328.322 315.718 C 364.668 274.133, 361.765 212.703, 321.637 174.235 C 302.283 155.682, 280.863 146.222, 256.500 145.470 C 249.900 145.266, 242.399 145.485, 239.831 145.955 M 51.162 164.213 C 35.785 195.199, 26.129 241.712, 30.053 265.898 C 30.624 269.417, 31.728 273.467, 32.506 274.898 C 33.770 277.225, 33.924 275.630, 33.960 259.801 C 34.004 240.503, 35.617 225.460, 39.665 206.602 C 42.438 193.688, 50.011 170.342, 54.991 159.360 C 60.121 148.046, 57.599 151.242, 51.162 164.213 M 241.688 205.502 C 219.362 211.639, 202.962 233.462, 203.015 256.960 C 203.047 271.066, 208.137 283.810, 217.890 294.204 C 231.696 308.915, 249.646 314.078, 269.415 309.022 C 283.030 305.540, 294.022 297.710, 301.938 285.855 C 308.231 276.432, 310.345 268.145, 309.805 255.025 C 309.388 244.906, 309.107 243.703, 305.311 235.792 C 298.075 220.712, 285.844 210.233, 270.068 205.596 C 263.490 203.663, 248.558 203.613, 241.688 205.502 M 245.105 214.583 C 228.099 219.156, 215.148 233.368, 212.004 250.906 C 206.511 281.546, 238.881 309.809, 268.168 299.943 C 289.606 292.721, 303.623 271.944, 300.269 252.361 C 295.748 225.965, 269.534 208.013, 245.105 214.583 M 249.045 224.064 C 226.734 228.581, 213.891 252.950, 223.486 272.561 C 227.388 280.537, 233.223 286.492, 240.782 290.213 C 246.860 293.206, 248.266 293.497, 256.479 293.466 C 264.189 293.438, 266.305 293.042, 271.037 290.744 C 279.011 286.873, 284.165 282.044, 287.999 274.851 C 294.517 262.622, 293.004 248.510, 283.946 237.051 C 276.085 227.106, 261.262 221.590, 249.045 224.064 M 360.102 293.750 C 343.754 326.173, 316.172 348.519, 280.512 358.232 C 271.237 360.758, 246.014 361.761, 235.285 360.030 C 221.020 357.729, 203.755 350.654, 190.577 341.711 C 178.270 333.358, 159.937 313.160, 151.542 298.705 C 150.010 296.067, 148.529 294.138, 148.250 294.417 C 146.266 296.400, 154.878 315.876, 162.389 326.390 C 168.168 334.479, 182.327 347.961, 190.742 353.388 C 224.788 375.338, 262.324 378.643, 300.498 363.051 C 325.409 352.876, 344.950 335.075, 356.423 312.105 C 358.787 307.372, 361.222 301.925, 361.834 300 C 363.438 294.956, 365.894 284, 365.420 284 C 365.199 284, 362.806 288.387, 360.102 293.750 M 91.957 406.940 C 96.409 413.191, 113.395 430.193, 121.500 436.509 C 128.989 442.345, 139.269 449.077, 145 451.898 C 148.062 453.405, 146.720 452.169, 128.854 437.033 C 122.059 431.275, 112 422.488, 106.500 417.505 C 101 412.521, 94.931 407.338, 93.014 405.986 L 89.527 403.527 91.957 406.940 M 410.561 414.172 C 388.356 434.488, 363.623 452.946, 342.358 465.071 C 330.841 471.637, 335.305 470.381, 350.037 462.909 C 370.072 452.748, 395.108 435.073, 408 421.988 C 413.958 415.940, 422.524 405.191, 421.890 404.557 C 421.675 404.342, 416.577 408.668, 410.561 414.172 M 196 475.032 C 204.544 480.513, 219.136 483.444, 237 483.269 C 254.650 483.096, 257.900 481.517, 242.330 480.680 C 224.065 479.698, 204.393 476.707, 194.282 473.375 C 193.302 473.052, 194.075 473.798, 196 475.032" stroke="none" fill="white" fill-rule="evenodd"/>
</svg>